<svg width="214" height="38" viewBox="0 0 214 38" fill="none" xmlns="http://www.w3.org/2000/svg">
<path d="M25.389 8.145C25.5543 8.455 25.6473 8.734 25.668 8.982C25.7093 9.23 25.73 9.59167 25.73 10.067V27.272C25.73 28.698 25.3373 29.535 24.552 29.783C24.1593 29.907 23.6633 29.969 23.064 29.969C22.4647 29.969 21.9893 29.9173 21.638 29.814C21.2867 29.7107 21.018 29.5867 20.832 29.442C20.646 29.2973 20.5013 29.0907 20.398 28.822C20.2947 28.4707 20.243 27.9333 20.243 27.21V16.825C19.7263 17.4657 18.972 18.4887 17.98 19.894C16.988 21.2787 16.3577 22.1467 16.089 22.498C15.8203 22.8493 15.6343 23.0973 15.531 23.242C15.4277 23.366 15.1693 23.552 14.756 23.8C14.3633 24.0273 13.9293 24.141 13.454 24.141C12.9993 24.141 12.5757 24.0377 12.183 23.831C11.811 23.6037 11.5423 23.3867 11.377 23.18L11.129 22.839C10.7157 22.3223 9.89933 21.227 8.68 19.553C7.46067 17.8583 6.79933 16.949 6.696 16.825V27.272C6.696 27.7473 6.67533 28.109 6.634 28.357C6.61333 28.5843 6.52033 28.8427 6.355 29.132C6.045 29.69 5.239 29.969 3.937 29.969C2.67633 29.969 1.891 29.69 1.581 29.132C1.41567 28.8427 1.31233 28.574 1.271 28.326C1.25033 28.078 1.24 27.706 1.24 27.21V10.005C1.24 9.52967 1.25033 9.17833 1.271 8.951C1.31233 8.703 1.41567 8.424 1.581 8.114C1.891 7.57667 2.697 7.308 3.999 7.308C4.557 7.308 5.03233 7.38033 5.425 7.525C5.83833 7.649 6.107 7.78333 6.231 7.928L6.417 8.114L13.454 17.352C16.9673 12.702 19.313 9.633 20.491 8.145C20.8423 7.587 21.669 7.308 22.971 7.308C24.2937 7.308 25.0997 7.587 25.389 8.145ZM27.7486 21.847C27.7486 19.367 28.6166 17.321 30.3526 15.709C32.0886 14.097 34.0726 13.291 36.3046 13.291C38.5366 13.291 40.5103 14.097 42.2256 15.709C43.941 17.3003 44.7986 19.336 44.7986 21.816C44.7986 23.5313 44.3543 25.0607 43.4656 26.404C42.577 27.7267 41.492 28.7083 40.2106 29.349C38.95 29.969 37.6376 30.279 36.2736 30.279C34.9096 30.279 33.587 29.9483 32.3056 29.287C31.0243 28.605 29.9393 27.613 29.0506 26.311C28.1826 24.9883 27.7486 23.5003 27.7486 21.847ZM34.2276 24.079C34.889 24.575 35.5606 24.823 36.2426 24.823C36.9246 24.823 37.6066 24.5647 38.2886 24.048C38.9706 23.5313 39.3116 22.7667 39.3116 21.754C39.3116 20.7413 38.9913 19.987 38.3506 19.491C37.71 18.995 37.0176 18.747 36.2736 18.747C35.5296 18.747 34.8373 19.0053 34.1966 19.522C33.556 20.0387 33.2356 20.8033 33.2356 21.816C33.2356 22.808 33.5663 23.5623 34.2276 24.079ZM52.1335 15.833C53.1049 14.3657 54.2725 13.632 55.6365 13.632C57.7445 13.632 59.3152 14.531 60.3485 16.329C60.5759 16.019 60.8445 15.6987 61.1545 15.368C61.4852 15.0167 62.0019 14.6447 62.7045 14.252C63.4072 13.8387 64.1305 13.632 64.8745 13.632C66.5279 13.632 67.9125 14.2727 69.0285 15.554C70.1445 16.8147 70.7025 18.9123 70.7025 21.847V27.272C70.7025 27.7473 70.6819 28.109 70.6405 28.357C70.6199 28.5843 70.5269 28.853 70.3615 29.163C70.0929 29.721 69.2972 30 67.9745 30C66.6725 30 65.8769 29.7107 65.5875 29.132C65.4429 28.822 65.3499 28.5533 65.3085 28.326C65.2879 28.078 65.2775 27.7163 65.2775 27.241V21.816C65.2775 20.018 64.6369 19.119 63.3555 19.119C62.6322 19.119 62.1362 19.3567 61.8675 19.832C61.6195 20.3073 61.4955 20.979 61.4955 21.847V27.272C61.4955 27.768 61.4749 28.1297 61.4335 28.357C61.4129 28.5843 61.3199 28.853 61.1545 29.163C60.8652 29.721 60.0592 30 58.7365 30C57.4345 30 56.6389 29.7107 56.3495 29.132C56.2049 28.822 56.1119 28.5533 56.0705 28.326C56.0499 28.078 56.0395 27.7163 56.0395 27.241V21.816C56.0395 20.018 55.3989 19.119 54.1175 19.119C52.8775 19.119 52.2575 20.018 52.2575 21.816V27.303C52.2575 27.7783 52.2369 28.14 52.1955 28.388C52.1749 28.6153 52.0819 28.884 51.9165 29.194C51.6065 29.7313 50.8005 30 49.4985 30C48.1965 30 47.4009 29.721 47.1115 29.163C46.9669 28.853 46.8739 28.5843 46.8325 28.357C46.8119 28.1297 46.8015 27.768 46.8015 27.272V16.36C46.8015 15.8847 46.8119 15.5333 46.8325 15.306C46.8739 15.058 46.9772 14.7893 47.1425 14.5C47.4525 13.942 48.1862 13.663 49.3435 13.663C50.5009 13.663 51.2552 13.849 51.6065 14.221C51.9579 14.593 52.1335 15.1303 52.1335 15.833ZM88.9177 19.894C88.9177 21.1547 88.5974 22.095 87.9567 22.715C87.3367 23.3143 86.6444 23.614 85.8797 23.614H78.5327C78.5327 24.1927 78.8737 24.6783 79.5557 25.071C80.2377 25.4637 80.9197 25.66 81.6017 25.66C82.8004 25.66 83.7407 25.536 84.4227 25.288L84.7637 25.164C85.2597 24.9367 85.673 24.823 86.0037 24.823C86.665 24.823 87.2334 25.288 87.7087 26.218C87.9774 26.776 88.1117 27.2513 88.1117 27.644C88.1117 29.4833 85.9107 30.403 81.5087 30.403C79.9794 30.403 78.6154 30.1447 77.4167 29.628C76.2387 29.0907 75.319 28.388 74.6577 27.52C73.3557 25.846 72.7047 23.9757 72.7047 21.909C72.7047 19.305 73.5417 17.228 75.2157 15.678C76.9104 14.1073 79.0184 13.322 81.5397 13.322C84.4124 13.322 86.5204 14.3347 87.8637 16.36C88.5664 17.4347 88.9177 18.6127 88.9177 19.894ZM82.3767 20.793C83.162 20.793 83.5547 20.4623 83.5547 19.801C83.5547 19.3257 83.3687 18.9433 82.9967 18.654C82.6454 18.3647 82.1287 18.22 81.4467 18.22C80.7854 18.22 80.124 18.499 79.4627 19.057C78.8014 19.5943 78.4707 20.173 78.4707 20.793H82.3767ZM100.023 13.663C102.09 13.663 103.805 14.4587 105.169 16.05C106.554 17.6207 107.246 19.5427 107.246 21.816V27.272C107.246 27.7473 107.226 28.109 107.184 28.357C107.164 28.5843 107.081 28.8427 106.936 29.132C106.647 29.69 105.841 29.969 104.518 29.969C103.051 29.969 102.204 29.5867 101.976 28.822C101.852 28.4707 101.79 27.9437 101.79 27.241V21.785C101.79 20.9377 101.542 20.2763 101.046 19.801C100.571 19.3257 99.9199 19.088 99.0932 19.088C98.2872 19.088 97.6259 19.336 97.1092 19.832C96.6132 20.328 96.3652 20.979 96.3652 21.785V27.272C96.3652 27.7473 96.3445 28.109 96.3032 28.357C96.2825 28.5843 96.1895 28.8427 96.0242 29.132C95.7555 29.69 94.9599 29.969 93.6372 29.969C92.3352 29.969 91.5395 29.69 91.2502 29.132C91.1055 28.822 91.0125 28.5533 90.9712 28.326C90.9505 28.078 90.9402 27.7163 90.9402 27.241V16.267C90.9402 15.8123 90.9505 15.4713 90.9712 15.244C91.0125 14.996 91.1159 14.7273 91.2812 14.438C91.5705 13.9213 92.3662 13.663 93.6682 13.663C94.9289 13.663 95.7039 13.9007 95.9932 14.376C96.1999 14.7273 96.3032 15.151 96.3032 15.647C96.3859 15.5023 96.5719 15.2957 96.8612 15.027C97.1505 14.7583 97.4295 14.5413 97.6982 14.376C98.4009 13.9007 99.1759 13.663 100.023 13.663ZM118.923 19.15L116.908 19.026V23.304C116.908 23.862 116.991 24.265 117.156 24.513C117.342 24.761 117.673 24.885 118.148 24.885C118.644 24.885 119.016 24.9057 119.264 24.947C119.533 24.9677 119.812 25.0607 120.101 25.226C120.577 25.4947 120.814 26.187 120.814 27.303C120.814 28.605 120.525 29.4007 119.946 29.69C119.636 29.8347 119.357 29.9277 119.109 29.969C118.882 29.9897 118.541 30 118.086 30C115.937 30 114.304 29.5143 113.188 28.543C112.072 27.5717 111.514 25.9287 111.514 23.614V19.026C111.122 19.088 110.698 19.119 110.243 19.119C109.789 19.119 109.406 18.9433 109.096 18.592C108.807 18.2407 108.662 17.6413 108.662 16.794C108.662 15.9467 108.714 15.337 108.817 14.965C108.921 14.5723 109.065 14.2933 109.251 14.128C109.582 13.8593 109.995 13.725 110.491 13.725L111.514 13.849V10.656C111.514 10.1807 111.525 9.82933 111.545 9.602C111.587 9.37467 111.69 9.12667 111.855 8.858C112.124 8.34133 112.92 8.083 114.242 8.083C115.648 8.083 116.485 8.46533 116.753 9.23C116.857 9.56067 116.908 10.0877 116.908 10.811V13.849C117.818 13.7663 118.5 13.725 118.954 13.725C119.43 13.725 119.781 13.7457 120.008 13.787C120.256 13.8077 120.535 13.9007 120.845 14.066C121.383 14.3347 121.651 15.1303 121.651 16.453C121.651 17.755 121.372 18.5507 120.814 18.84C120.504 18.9847 120.225 19.0777 119.977 19.119C119.75 19.1397 119.399 19.15 118.923 19.15ZM130.617 29.938C128.53 29.938 126.794 29.1527 125.409 27.582C124.045 25.9907 123.363 24.0583 123.363 21.785V16.36C123.363 15.864 123.373 15.5023 123.394 15.275C123.435 15.0477 123.528 14.779 123.673 14.469C123.962 13.911 124.768 13.632 126.091 13.632C127.538 13.632 128.385 14.0247 128.633 14.81C128.757 15.1407 128.819 15.6677 128.819 16.391V21.816C128.819 22.6633 129.057 23.3247 129.532 23.8C130.028 24.2753 130.679 24.513 131.485 24.513C132.312 24.513 132.973 24.265 133.469 23.769C133.986 23.273 134.244 22.622 134.244 21.816V16.329C134.244 15.8537 134.254 15.5023 134.275 15.275C134.316 15.027 134.42 14.748 134.585 14.438C134.854 13.9007 135.649 13.632 136.972 13.632C138.274 13.632 139.07 13.911 139.359 14.469C139.504 14.779 139.586 15.058 139.607 15.306C139.648 15.5333 139.669 15.8847 139.669 16.36V27.334C139.669 27.7887 139.648 28.14 139.607 28.388C139.586 28.6153 139.493 28.8737 139.328 29.163C139.018 29.7003 138.222 29.969 136.941 29.969C135.68 29.969 134.905 29.721 134.616 29.225C134.409 28.8737 134.306 28.45 134.306 27.954C134.223 28.0987 134.037 28.3053 133.748 28.574C133.459 28.8427 133.18 29.07 132.911 29.256C132.208 29.7107 131.444 29.938 130.617 29.938ZM147.495 15.833C148.466 14.3657 149.634 13.632 150.998 13.632C153.106 13.632 154.677 14.531 155.71 16.329C155.937 16.019 156.206 15.6987 156.516 15.368C156.847 15.0167 157.363 14.6447 158.066 14.252C158.769 13.8387 159.492 13.632 160.236 13.632C161.889 13.632 163.274 14.2727 164.39 15.554C165.506 16.8147 166.064 18.9123 166.064 21.847V27.272C166.064 27.7473 166.043 28.109 166.002 28.357C165.981 28.5843 165.888 28.853 165.723 29.163C165.454 29.721 164.659 30 163.336 30C162.034 30 161.238 29.7107 160.949 29.132C160.804 28.822 160.711 28.5533 160.67 28.326C160.649 28.078 160.639 27.7163 160.639 27.241V21.816C160.639 20.018 159.998 19.119 158.717 19.119C157.994 19.119 157.498 19.3567 157.229 19.832C156.981 20.3073 156.857 20.979 156.857 21.847V27.272C156.857 27.768 156.836 28.1297 156.795 28.357C156.774 28.5843 156.681 28.853 156.516 29.163C156.227 29.721 155.421 30 154.098 30C152.796 30 152 29.7107 151.711 29.132C151.566 28.822 151.473 28.5533 151.432 28.326C151.411 28.078 151.401 27.7163 151.401 27.241V21.816C151.401 20.018 150.76 19.119 149.479 19.119C148.239 19.119 147.619 20.018 147.619 21.816V27.303C147.619 27.7783 147.598 28.14 147.557 28.388C147.536 28.6153 147.443 28.884 147.278 29.194C146.968 29.7313 146.162 30 144.86 30C143.558 30 142.762 29.721 142.473 29.163C142.328 28.853 142.235 28.5843 142.194 28.357C142.173 28.1297 142.163 27.768 142.163 27.272V16.36C142.163 15.8847 142.173 15.5333 142.194 15.306C142.235 15.058 142.339 14.7893 142.504 14.5C142.814 13.942 143.548 13.663 144.705 13.663C145.862 13.663 146.617 13.849 146.968 14.221C147.319 14.593 147.495 15.1303 147.495 15.833Z" fill="#8338EC"/>
<path d="M204.5 7.60002V6.46002H185.5V7.60002C185.5 11.4418 188.389 15.9258 191.512 18.3966C191.905 18.7078 191.905 19.2926 191.512 19.6035C188.389 22.0742 185.5 26.5582 185.5 30.4V31.54H204.5V30.4C204.5 26.5582 201.611 22.0742 198.488 19.6035C198.095 19.2922 198.095 18.7074 198.488 18.3966C201.611 15.9258 204.5 11.4418 204.5 7.60002Z" fill="#81D4FA"/>
<path d="M193.47 23.3347C189.75 25.3107 187.02 31.16 187.02 31.16H202.98C202.98 31.16 200.25 25.3107 196.53 23.3347C196.053 23.0812 195.76 22.5804 195.76 22.04V18.2468C195.76 17.6377 196.103 17.0662 196.66 16.8215C198.89 15.8433 200.582 13.1799 201.19 12.1133C201.317 11.8906 201.191 11.6056 200.94 11.5528C197.038 10.7308 192.796 10.8441 189.071 11.5607C188.816 11.6098 188.686 11.8967 188.815 12.122C189.427 13.1944 191.116 15.8464 193.34 16.8218C193.898 17.0662 194.24 17.6377 194.24 18.2465V22.04C194.24 22.5804 193.947 23.0812 193.47 23.3347Z" fill="#F7BC30"/>
<path d="M195 4.56001C190.844 4.52505 186.455 4.54481 184.734 4.55507C184.316 4.55773 183.98 4.89707 183.98 5.31507V6.54855C183.98 6.93349 184.266 7.25763 184.648 7.30285C186.304 7.50007 190.772 7.98001 195 7.98001C199.228 7.98001 203.696 7.50007 205.352 7.30285C205.734 7.25725 206.02 6.93349 206.02 6.54855V5.31507C206.02 4.89707 205.684 4.55773 205.266 4.55507C203.545 4.54481 199.156 4.52505 195 4.56001Z" fill="#8338EC"/>
<path d="M195 30.02C190.772 30.02 186.304 30.5 184.648 30.6972C184.266 30.7428 183.98 31.0665 183.98 31.4515V32.685C183.98 33.103 184.316 33.4423 184.734 33.445C186.455 33.4552 190.844 33.475 195 33.44C199.156 33.475 203.545 33.4552 205.266 33.445C205.684 33.4423 206.02 33.103 206.02 32.685V31.4515C206.02 31.0665 205.734 30.7424 205.352 30.6972C203.696 30.5 199.228 30.02 195 30.02Z" fill="#8338EC"/>
<rect x="196.822" y="8.72998" width="4" height="4" rx="2" fill="white"/>
<path d="M198.822 11.73C199.375 11.73 199.822 11.2823 199.822 10.73C199.822 10.1777 199.375 9.72998 198.822 9.72998C198.27 9.72998 197.822 10.1777 197.822 10.73C197.822 11.2823 198.27 11.73 198.822 11.73Z" fill="#FB5607"/>
<rect x="189.822" y="8.72998" width="4" height="4" rx="2" fill="white"/>
<path d="M191.822 11.73C192.375 11.73 192.822 11.2823 192.822 10.73C192.822 10.1777 192.375 9.72998 191.822 9.72998C191.27 9.72998 190.822 10.1777 190.822 10.73C190.822 11.2823 191.27 11.73 191.822 11.73Z" fill="#FB5607"/>
<path d="M195.254 15.9088C196.207 15.9088 196.993 15.092 197.099 14.041C197.112 13.9123 197.029 13.7977 196.916 13.7977C196.273 13.7977 194.234 13.7977 193.591 13.7977C193.478 13.7977 193.394 13.9128 193.408 14.041C193.514 15.092 194.3 15.9088 195.254 15.9088Z" fill="#4A254B"/>
<path d="M204.499 30.5984C204.492 30.5984 204.485 30.598 204.478 30.5972C202.509 30.3818 198.66 30.02 195 30.02C191.339 30.02 187.49 30.3818 185.522 30.5976C185.419 30.6064 185.324 30.5342 185.312 30.4293C185.301 30.3252 185.376 30.2313 185.48 30.2199C187.457 30.0033 191.321 29.64 195 29.64C198.678 29.64 202.543 30.0033 204.52 30.2195C204.624 30.2309 204.699 30.3248 204.688 30.4289C204.677 30.5266 204.595 30.5984 204.499 30.5984Z" fill="#4A254B"/>
<path d="M195 8.35999C191.322 8.35999 187.457 7.99671 185.48 7.78049C185.376 7.76909 185.3 7.67523 185.312 7.57111C185.324 7.46623 185.419 7.39137 185.522 7.40277C187.49 7.61823 191.339 7.97999 195 7.97999C198.661 7.97999 202.51 7.61823 204.478 7.40239C204.58 7.39137 204.676 7.46585 204.688 7.57073C204.699 7.67485 204.624 7.76871 204.52 7.78011C202.543 7.99671 198.678 8.35999 195 8.35999Z" fill="#4A254B"/>
</svg>
